<svg viewBox="0 0 800 800" xmlns="http://www.w3.org/2000/svg">
  <defs><linearGradient id="hgs" x1="0%" y1="0%" x2="100%" y2="100%"><stop offset="0%" stop-color="#0D9488"/><stop offset="100%" stop-color="#0891B2"/></linearGradient>
<linearGradient id="ng0" x1="0%" y1="0%" x2="100%" y2="100%"><stop offset="0%" stop-color="#14B8A6"/><stop offset="100%" stop-color="#0F766E"/></linearGradient>
<linearGradient id="ng1" x1="0%" y1="0%" x2="100%" y2="100%"><stop offset="0%" stop-color="#22D3EE"/><stop offset="100%" stop-color="#0E7490"/></linearGradient>
<linearGradient id="ng2" x1="0%" y1="0%" x2="100%" y2="100%"><stop offset="0%" stop-color="#60A5FA"/><stop offset="100%" stop-color="#1D4ED8"/></linearGradient>
<linearGradient id="ng3" x1="0%" y1="0%" x2="100%" y2="100%"><stop offset="0%" stop-color="#A78BFA"/><stop offset="100%" stop-color="#6D28D9"/></linearGradient>
<linearGradient id="ng4" x1="0%" y1="0%" x2="100%" y2="100%"><stop offset="0%" stop-color="#C084FC"/><stop offset="100%" stop-color="#7E22CE"/></linearGradient>
<linearGradient id="ng5" x1="0%" y1="0%" x2="100%" y2="100%"><stop offset="0%" stop-color="#2DD4BF"/><stop offset="100%" stop-color="#0F766E"/></linearGradient>
</defs>
  <circle cx="400" cy="400" r="310" fill="none" stroke="#14B8A6" stroke-width="10" stroke-dasharray="22 14" opacity="0.5"/>
  <polygon points="400,260 521,330 521,470 400,540 279,470 279,330" fill="#134E4A"/>
  <polygon points="400,260 521,330 521,470 400,540 279,470 279,330" fill="none" stroke="url(#hgs)" stroke-width="6"/>
  <path d="M 400,290 C 410.56,364.8 435.2,389.44 510,400 C 435.2,410.56 410.56,435.2 400,510 C 389.44,435.2 364.8,410.56 290,400 C 364.8,389.44 389.44,364.8 400,290 Z" fill="#5EEAD4"/>
  <line x1="400" y1="233" x2="400" y2="174" stroke="#14B8A6" stroke-width="20" opacity="0.7" stroke-linecap="round"/>
<rect x="330" y="28" width="140" height="124" rx="30" fill="url(#ng0)"/>
<path d="M 400.0,52.0 C 403.648,77.84 412.16,86.352 438.0,90.0 C 412.16,93.648 403.648,102.16 400.0,128.0 C 396.352,102.16 387.84,93.648 362.0,90.0 C 387.84,86.352 396.352,77.84 400.0,52.0 Z" fill="#FFFFFF" opacity="0.9"/>
<line x1="255" y1="316" x2="221" y2="296" stroke="#14B8A6" stroke-width="20" opacity="0.7" stroke-linecap="round"/>
<rect x="62" y="183" width="140" height="124" rx="30" fill="url(#ng1)"/>
<path d="M 131.53212482682403,206.99999999999997 C 135.18012482682403,232.83999999999997 143.69212482682403,241.35199999999998 169.53212482682403,244.99999999999997 C 143.69212482682403,248.64799999999997 135.18012482682403,257.15999999999997 131.53212482682403,283.0 C 127.88412482682403,257.15999999999997 119.37212482682403,248.64799999999997 93.53212482682403,244.99999999999997 C 119.37212482682403,241.35199999999998 127.88412482682403,232.83999999999997 131.53212482682403,206.99999999999997 Z" fill="#FFFFFF" opacity="0.9"/>
<line x1="255" y1="484" x2="221" y2="504" stroke="#14B8A6" stroke-width="20" opacity="0.7" stroke-linecap="round"/>
<rect x="62" y="493" width="140" height="124" rx="30" fill="url(#ng2)"/>
<path d="M 131.53212482682397,517.0 C 135.18012482682397,542.84 143.69212482682397,551.352 169.53212482682397,555.0 C 143.69212482682397,558.648 135.18012482682397,567.16 131.53212482682397,593.0 C 127.88412482682398,567.16 119.37212482682398,558.648 93.53212482682397,555.0 C 119.37212482682398,551.352 127.88412482682398,542.84 131.53212482682397,517.0 Z" fill="#FFFFFF" opacity="0.9"/>
<line x1="400" y1="567" x2="400" y2="626" stroke="#14B8A6" stroke-width="20" opacity="0.7" stroke-linecap="round"/>
<rect x="330" y="648" width="140" height="124" rx="30" fill="url(#ng3)"/>
<path d="M 400.0,672.0 C 403.648,697.84 412.16,706.352 438.0,710.0 C 412.16,713.648 403.648,722.16 400.0,748.0 C 396.352,722.16 387.84,713.648 362.0,710.0 C 387.84,706.352 396.352,697.84 400.0,672.0 Z" fill="#FFFFFF" opacity="0.9"/>
<line x1="545" y1="484" x2="579" y2="504" stroke="#14B8A6" stroke-width="20" opacity="0.7" stroke-linecap="round"/>
<rect x="598" y="493" width="140" height="124" rx="30" fill="url(#ng4)"/>
<path d="M 668.467875173176,517.0 C 672.115875173176,542.84 680.627875173176,551.352 706.467875173176,555.0 C 680.627875173176,558.648 672.115875173176,567.16 668.467875173176,593.0 C 664.819875173176,567.16 656.3078751731761,558.648 630.467875173176,555.0 C 656.3078751731761,551.352 664.819875173176,542.84 668.467875173176,517.0 Z" fill="#FFFFFF" opacity="0.9"/>
<line x1="545" y1="316" x2="579" y2="296" stroke="#14B8A6" stroke-width="20" opacity="0.7" stroke-linecap="round"/>
<rect x="598" y="183" width="140" height="124" rx="30" fill="url(#ng5)"/>
<path d="M 668.467875173176,207.00000000000003 C 672.115875173176,232.84000000000003 680.627875173176,241.35200000000003 706.467875173176,245.00000000000003 C 680.627875173176,248.64800000000002 672.115875173176,257.16 668.467875173176,283.0 C 664.819875173176,257.16 656.3078751731761,248.64800000000002 630.467875173176,245.00000000000003 C 656.3078751731761,241.35200000000003 664.819875173176,232.84000000000003 668.467875173176,207.00000000000003 Z" fill="#FFFFFF" opacity="0.9"/>

</svg>